<svg width="80" height="78" viewBox="0 0 80 78" xmlns="http://www.w3.org/2000/svg"><title>Group 7 Copy</title><g fill="none" fill-rule="evenodd"><path d="M79.486 29.34c-.571-1.299-5-1.034-6.766-1.346L58.588 26.52c-1.833-.321-4.78-.033-6.101-.866-.883-.557-2.17-4.218-2.688-5.418L43.382 5.844c-.63-1.452-1.365-3.718-2.245-4.905-.273-.37-.746-1.124-1.549-.897-.86.241-1.148 1.041-1.517 1.795-.724 1.478-1.395 3.018-2.15 4.52l-6.513 13.687c-.623 1.403-1.974 4.861-3.161 5.482-.571.298-1.333.196-2.055.32l-4.079.449-13.34 1.57c-1.798.307-5.937.156-6.64 1.41-.377.673.136 1.468.443 1.86l1.17 1.09c.935.76 1.713 1.732 2.655 2.5l10.591 10.001 3.035 2.853c.438.358 1.06.804 1.296 1.347.354.813-.591 4.729-.822 5.737L15.656 69.89l-.948 5.065c-.129.68-.034 1.637.316 1.955.46.418 1.344.433 1.96.128l4.395-2.564 11.887-6.989 3.826-2.243c.732-.45 1.386-.902 2.403-1.09 1.558-.29 4.425 1.85 5.437 2.468l13.31 7.79 3.825 2.243c.437.275 1.122.81 1.96.61 1.658-.398.718-3.933.411-5.354L61.467 55.4l2.75-1.121c1.754-.762 2.277-1.506 2.277-1.506s-.976.338-2.593.743c-.941.235-1.855.426-2.757.592-.43-2.04-.968-4.031-.72-4.926.31-1.116 3.222-3.5 4.141-4.328l9.864-9.424 4.3-4.103c.397-.403 1.133-1.13.757-1.986z" fill="#FEB128"/><path d="M58.718 51.722s1.918.086-5.881-.128c-3.137-.035-13.016-.86-13.5-.898l-4.172-.385c-.7-.114-1.628.062-1.992-.384v-.096c8.588-5.893 16.944-12.19 25.577-18.047l-.032-.225c-.727-.362-1.784-.297-2.687-.48-1.914-.389-3.93-.39-6.007-.738-3.73-.625-7.91-.577-12.108-.577-5.828-.001-11.583.155-16.662 1.058-2.24.398-4.449.48-6.512.993-.855.213-1.782.15-2.434.545l.031.064c.498.136 1.258.097 1.897.097 1.539.031 3.077.063 4.616.096l4.015.128 4.047.16 2.94.161c2.416.382 5.006.18 7.335.577 2.01.342 4 .327 5.88.705.561.113 1.22.076 1.644.321v.032c-.196.476-1.673 1.289-2.15 1.603l-5.248 3.75-11.224 8.174-7.05 5c.016.243.123.174.228.31 5.715.84 12.535 1.3 18.754 1.32 6.455.021 12.262-.476 15.51-.977 2.79-.43 5.38-.738 8.22-1.448 1.617-.404 2.592-.742 2.592-.742l-5.627.03z" fill="#FFFCD5"/></g></svg>