<svg width="90" height="73" viewBox="0 0 90 73" xmlns="http://www.w3.org/2000/svg"><title>Group 9</title><g fill="none" fill-rule="evenodd"><ellipse fill="#FFF" transform="rotate(-5 35.083 49.605)" cx="35.083" cy="49.605" rx="27.407" ry="18.149"/><path d="M35.323 67.557c-14.76.697-26.692-6.784-26.692-16.74 0-9.968 11.931-17.96 26.692-18.648 14.77-.686 26.726 5.465 26.726 15.41 0 9.954-11.956 19.3-26.726 19.978m31.43-32.343c-3.507-.689-1.802-2.596-1.802-2.596s3.432-5.716-.679-9.87c-5.092-5.147-17.467.655-17.467.655-4.728 1.48-3.476-.678-2.806-4.352 0-4.33-1.467-11.658-14.06-7.328-12.58 4.35-23.38 19.596-23.38 19.596C-.95 41.448.043 49.277.043 49.277 1.92 66.564 20.09 71.307 34.223 72.43c14.869 1.18 34.938-5.18 41.023-18.243 6.083-13.088-4.974-18.265-8.494-18.973" fill="#D52B2A"/><path d="M37.854 50.823c-.938.708-2.094.61-2.59-.24-.517-.828-.324-2.158.625-2.858 1.101-.828 2.246-.588 2.74.243.5.848.143 2.125-.775 2.855m-8.75 7.537c-2.773.326-5.008-1.289-5.008-3.633 0-2.334 1.984-4.777 4.759-5.07 3.183-.306 5.255 1.548 5.255 3.893 0 2.334-2.245 4.492-5.007 4.81m3.744-19.73C18 40.387 19.716 54.442 19.716 54.442s-.152 4.453 3.98 6.72c8.687 4.754 17.63 1.873 22.152-4.024 4.521-5.9 1.868-20.25-13.001-18.508" fill="#040000"/><path d="M73.815 29.347a2.447 2.447 0 0 1-2.45-2.454s2.406-11.013-8.49-8.582c-1.346 0-2.428-1.101-2.428-2.454 0-1.371 1.082-2.475 2.428-2.475 0 0 15.17-2.836 13.357 13.642 0 .098-.011.176-.033.262a2.422 2.422 0 0 1-2.384 2.06zM72.047.587C81.432 2.8 94.314 11.97 88.52 31.488H88.5c-.4 2.788-1.768 3.014-3.401 3.014-1.95 0-3.526-1.24-3.526-3.215 0-1.709.701-3.449.701-3.449.207-.716 1.857-5.191-1.087-11.875-5.398-9.159-16.262-9.293-17.545-8.771-1.296.513-3.205.772-3.205.772-1.964 0-3.54-1.617-3.54-3.58 0-1.648 1.09-3.042 2.58-3.466 0 0 .033-.055.085-.067.108-.022.218-.133.334-.145 1.512-.292 6.908-1.36 12.152-.12z" fill="#E89214"/></g></svg>