<svg width="66" height="73" viewBox="0 0 66 73" xmlns="http://www.w3.org/2000/svg"><title>Group 20</title><path d="M65.999 47.998c-.045-4.853-1.839-7.485-3.897-10.918-.928-1.434-1.998-2.394-2.925-3.827-.144-.777.157-1.36-.058-3.402-.207-3.062-1.273-4.249-1.498-4.624.096-.814-.213-7.525-2.53-11.495C48.028.492 34.647.009 33.009 0h-.016c-1.638.009-15.02.492-22.084 13.732-2.316 3.97-2.625 10.681-2.529 11.495-.225.375-1.291 1.562-1.498 4.624-.215 2.042.087 2.625-.058 3.402-.927 1.433-1.998 2.394-2.925 3.827C1.84 40.513.046 43.145.001 47.998c-.033 3.617.782 8.55 3.205 8.618.762-.063 1.414-.594 2.738-2.15.396-.468 1.79-2.434 2.072-2.98.272.753.916 6.002 5.416 8.736-4.623 2.282-6.885 3.725-6.965 6.687.097 1.713 2.048 3.991 5.636 5.053 4.519 1.324 9.775 1.354 14.15.246 2.588-.654 3.366-1.31 6.747-3.26 3.381 1.95 4.16 2.606 6.746 3.26 4.376 1.108 9.632 1.078 14.151-.246 3.588-1.062 5.539-3.34 5.635-5.053-.079-2.962-2.34-4.405-6.964-6.687 4.5-2.734 5.144-7.982 5.416-8.735.282.545 1.676 2.51 2.071 2.98 1.325 1.555 1.976 2.086 2.739 2.15 2.422-.068 3.238-5.002 3.205-8.62z" fill="#46A4E4" fill-rule="evenodd"/></svg>