<svg width="88" height="77" viewBox="0 0 88 77" xmlns="http://www.w3.org/2000/svg"><title>微信好友</title><g fill="#35C020" fill-rule="evenodd"><path d="M63.474 21.619a41.74 41.74 0 0 0-7.195-.62c-18.034 0-32.701 11.395-32.701 25.406 0 3.332.83 6.516 2.337 9.434-2.09-.362-4.113-.899-6.043-1.599l-9.75 5.686c-.28.17-1.824.072-2.177-.267a1.913 1.913 0 0 1-.384-2.207l3.807-7.774C4.123 44.304 0 36.56 0 28.207 0 12.652 14.463 0 32.243 0 46.59 0 58.998 8.07 63.114 20.09c.07.197.213.8.36 1.529zm-40.199-1.996a3.283 3.283 0 0 0 3.276-3.29 3.283 3.283 0 0 0-3.276-3.292A3.283 3.283 0 0 0 20 16.332a3.283 3.283 0 0 0 3.275 3.29zm16 0a3.283 3.283 0 0 0 3.276-3.29 3.283 3.283 0 0 0-3.276-3.292A3.283 3.283 0 0 0 36 16.332a3.283 3.283 0 0 0 3.275 3.29z"/><path d="M77.288 76.456a1.97 1.97 0 0 1-.901-.218l-9.973-5.091a36.27 36.27 0 0 1-9.241 1.199C40.533 72.346 27 61.296 27 47.709s13.533-24.636 30.173-24.636c16.639 0 30.172 11.05 30.172 24.636 0 7.322-4.05 14.298-10.922 18.954l2.732 6.976c.31.789.108 1.696-.503 2.275a1.991 1.991 0 0 1-1.364.542zm-31.013-33.76a3.283 3.283 0 0 0 3.276-3.29 3.283 3.283 0 0 0-3.276-3.292A3.283 3.283 0 0 0 43 39.405a3.283 3.283 0 0 0 3.275 3.29zm20 0a3.283 3.283 0 0 0 3.276-3.29 3.283 3.283 0 0 0-3.276-3.292A3.283 3.283 0 0 0 63 39.405a3.283 3.283 0 0 0 3.275 3.29z"/></g></svg>