<svg width="73" height="73" viewBox="0 0 73 73" xmlns="http://www.w3.org/2000/svg"><title>朋友圈</title><g fill-rule="nonzero" fill="none"><path d="M36.46 0c-1.38 0-2.734.083-4.068.24a35.8 35.8 0 0 0-9.34 2.363S47.32 26.548 47.967 27.438V1.904a39.81 39.81 0 0 0-2.207-.673A35.853 35.853 0 0 0 36.46 0z" fill="#F95452"/><path d="M61.27 10.49a35.283 35.283 0 0 0-3.044-2.697 35.81 35.81 0 0 0-8.279-4.911s.178 34.03 0 35.117L68.061 19.94a36.143 36.143 0 0 0-1.09-2.026 35.719 35.719 0 0 0-5.701-7.424z" fill="#6467F0"/><path d="M70.052 23.053S46.044 47.246 45.145 47.89h25.611a35.488 35.488 0 0 0 1.91-11.473c0-1.372-.087-2.726-.244-4.054a35.283 35.283 0 0 0-2.37-9.31z" fill="#5283F0"/><path d="M33.618 49.95l18.114 18.058c.69-.34 1.368-.703 2.034-1.086a35.638 35.638 0 0 0 7.45-5.686c.958-.96 1.86-1.974 2.704-3.035a35.744 35.744 0 0 0 4.925-8.254s-34.133.18-35.227.003z" fill="#00B1FE"/><path d="M24.974 45.145v25.537c.728.246 1.464.469 2.207.67a35.74 35.74 0 0 0 9.3 1.233c1.373 0 2.73-.085 4.06-.24a35.784 35.784 0 0 0 9.34-2.366c.003 0-24.261-23.938-24.907-24.834z" fill="#65D020"/><path d="M21.95 33.618L3.841 51.675c.34.69.703 1.366 1.09 2.03a35.338 35.338 0 0 0 5.701 7.43 34.872 34.872 0 0 0 3.045 2.695 35.56 35.56 0 0 0 8.281 4.912s-.185-34.034-.01-35.124z" fill="#9AD122"/><path d="M1.235 27.175A35.566 35.566 0 0 0 0 36.447c0 1.37.086 2.726.243 4.052a35.061 35.061 0 0 0 2.374 9.31S26.623 25.614 27.52 24.973H1.905c-.247.726-.47 1.46-.67 2.201z" fill="#FFC817"/><path d="M17.966 4.929a35.653 35.653 0 0 0-7.45 5.681 35.623 35.623 0 0 0-2.706 3.036 35.668 35.668 0 0 0-4.928 8.26s34.14-.182 35.23-.006L20 3.842c-.689.342-1.367.704-2.034 1.087z" fill="#FF7612"/></g></svg>